<?xml version="1.0" standalone="no"?>
<!DOCTYPE svg PUBLIC "-//W3C//DTD SVG 20010904//EN"
 "http://www.w3.org/TR/2001/REC-SVG-20010904/DTD/svg10.dtd">
<svg version="1.0" xmlns="http://www.w3.org/2000/svg"
 width="2400.000000pt" height="1350.000000pt" viewBox="0 0 2400.000000 1350.000000"
 preserveAspectRatio="xMidYMid meet">

<g transform="translate(0.000000,1350.000000) scale(0.100000,-0.100000)"
fill="#000000" stroke="none">
<path d="M6661 13119 c-296 -36 -547 -198 -716 -459 -261 -402 -390 -1083
-372 -1950 4 -151 11 -329 17 -395 6 -66 12 -138 13 -161 l2 -41 -655 -550
-655 -551 -40 34 c-64 54 -213 153 -289 191 -246 124 -522 183 -856 183 -371
0 -669 -69 -1005 -234 -532 -261 -894 -637 -1225 -1269 -270 -516 -396 -936
-441 -1474 -15 -187 -6 -697 15 -848 53 -367 147 -689 277 -947 l30 -59 -40
-132 c-155 -513 -216 -949 -216 -1542 1 -380 9 -465 70 -740 131 -584 493
-1194 886 -1490 258 -194 512 -287 846 -310 l102 -7 31 30 c27 27 30 37 30 92
0 75 -20 127 -55 140 -15 6 -55 10 -89 10 -35 0 -103 7 -152 15 -444 77 -791
384 -1061 941 -157 324 -238 659 -258 1069 -8 149 8 539 31 759 25 242 104
680 133 734 5 9 21 -4 51 -40 300 -361 706 -608 1192 -727 263 -64 375 -75
773 -76 386 0 501 9 785 61 635 116 1189 388 1609 789 338 324 655 856 851
1430 178 522 265 1040 277 1635 11 563 -55 1234 -268 2722 l-41 293 224 225
c655 659 951 1127 1023 1621 62 430 -100 833 -390 970 -120 57 -285 78 -444
58z m296 -358 c94 -41 158 -137 188 -278 20 -91 19 -294 -1 -391 -63 -309
-267 -669 -598 -1057 -128 -149 -338 -367 -346 -358 -11 11 -39 356 -46 563
-8 207 9 519 37 713 69 482 227 751 480 822 80 22 219 15 286 -14z m-1307
-3066 c0 -8 20 -232 45 -497 103 -1120 128 -1465 127 -1793 -1 -823 -142
-1529 -438 -2189 -279 -620 -656 -1032 -1193 -1301 -304 -152 -612 -234 -1000
-264 -500 -40 -942 35 -1309 220 -277 140 -509 344 -700 617 -42 60 -49 77
-42 95 5 12 30 80 55 150 187 524 499 1092 869 1581 453 600 1188 1362 1986
2060 l145 127 13 -32 c25 -61 61 -210 73 -305 17 -136 6 -409 -21 -539 -55
-260 -172 -519 -334 -734 -228 -304 -465 -492 -707 -561 -41 -12 -120 -24
-177 -27 l-103 -6 6 -31 c22 -111 66 -180 138 -219 38 -20 55 -22 172 -21 288
3 559 92 799 261 128 91 340 308 424 435 166 251 257 535 293 912 15 161 7
463 -16 566 -38 174 -124 384 -212 517 -22 32 -33 57 -27 63 32 31 1120 929
1127 930 4 0 7 -7 7 -15z m-2229 -630 c222 -42 402 -126 554 -260 l40 -35 -45
-38 c-452 -377 -1206 -1103 -1573 -1513 -663 -741 -1154 -1462 -1428 -2094
-47 -110 -47 -110 -53 -104 -12 11 -77 249 -99 359 -49 244 -61 366 -61 655
-1 275 8 386 45 605 44 260 152 617 269 890 390 915 1064 1472 1876 1549 130
13 369 5 475 -14z"/>
<path d="M13770 10225 c-144 -40 -283 -138 -391 -275 -238 -301 -448 -839
-574 -1465 -104 -521 -151 -948 -162 -1474 l-6 -295 -84 -92 c-119 -132 -219
-220 -287 -254 -66 -34 -103 -37 -147 -15 -103 54 -97 181 46 950 56 301 67
444 37 491 -37 58 -78 69 -255 69 l-158 0 -18 53 c-10 29 -28 64 -41 77 -73
77 -359 45 -584 -67 -126 -62 -223 -134 -346 -258 -261 -260 -415 -598 -445
-972 l-7 -88 -107 -102 c-117 -113 -185 -156 -258 -164 -57 -6 -89 8 -120 54
-50 75 -42 166 57 662 129 646 132 783 21 890 -125 121 -359 100 -590 -54
-220 -147 -404 -379 -565 -711 -46 -93 -88 -181 -94 -195 -20 -46 -13 5 23
172 84 387 105 546 85 652 -26 137 -99 199 -250 211 -269 23 -589 -218 -827
-623 -65 -110 -137 -262 -183 -384 -19 -49 -35 -87 -36 -85 -6 6 28 239 52
357 14 69 48 215 75 325 94 377 84 411 -121 409 -144 0 -226 -29 -300 -102
-65 -66 -87 -117 -143 -337 -85 -330 -119 -609 -119 -975 1 -501 66 -716 236
-770 91 -29 237 2 293 62 39 42 81 150 133 340 161 597 403 1079 535 1066 63
-6 64 -54 10 -493 -50 -402 -54 -548 -18 -695 23 -95 56 -162 103 -214 57 -62
108 -80 212 -74 89 5 144 26 185 70 38 40 81 148 122 303 52 198 91 318 151
464 149 362 334 641 427 641 13 0 29 -11 39 -26 16 -23 16 -36 5 -131 -7 -57
-30 -199 -52 -315 -21 -116 -47 -267 -56 -337 -44 -337 60 -573 284 -647 85
-28 326 -26 436 4 135 37 254 105 442 254 21 17 22 16 66 -44 114 -158 276
-238 484 -238 238 0 422 111 599 364 12 17 16 12 52 -60 54 -111 152 -212 251
-261 65 -32 86 -37 162 -41 183 -9 335 60 555 253 l74 64 17 -68 c25 -101 72
-180 130 -216 46 -28 55 -30 149 -30 109 0 155 15 203 67 38 41 81 148 132
333 110 398 242 699 412 938 73 102 194 221 253 248 79 36 160 19 190 -40 34
-65 26 -192 -16 -274 -47 -93 -159 -181 -324 -257 -101 -47 -155 -94 -184
-162 -20 -48 -22 -64 -17 -168 15 -329 207 -568 533 -662 69 -20 102 -23 254
-23 153 0 185 3 254 23 138 40 245 102 387 223 l56 48 38 -55 c110 -159 280
-244 489 -244 241 0 409 102 599 363 12 17 16 12 50 -55 64 -129 149 -216 267
-271 52 -25 81 -32 150 -35 175 -9 316 53 526 228 l80 68 28 -43 c44 -70 148
-160 228 -199 90 -42 155 -56 261 -56 156 0 279 53 396 168 72 72 73 73 68 40
-3 -18 -9 -55 -13 -81 -6 -47 -7 -48 -163 -174 -328 -265 -610 -532 -742 -703
-384 -493 -454 -976 -180 -1222 101 -91 214 -131 371 -131 340 0 595 227 813
723 139 318 245 671 341 1140 l42 205 370 253 c203 139 376 257 385 262 13 7
26 -6 67 -69 148 -227 372 -360 679 -401 114 -16 380 -8 478 14 180 40 360
119 528 231 54 36 102 65 106 65 4 0 13 -24 20 -53 27 -120 94 -219 173 -251
43 -18 155 -21 209 -6 115 32 154 98 230 385 103 386 254 732 419 954 32 44
76 91 97 105 40 28 87 34 100 14 4 -7 8 -116 8 -243 0 -222 1 -232 24 -278 94
-189 328 -233 527 -101 137 91 267 284 288 427 15 98 -45 211 -135 258 -21 10
-63 22 -93 25 -31 4 -56 10 -56 13 0 3 10 53 21 111 13 64 22 146 22 210 1 89
-2 113 -22 158 -45 101 -121 145 -251 146 -356 2 -766 -409 -1011 -1012 -18
-46 -35 -79 -37 -73 -8 24 42 321 83 496 25 105 57 240 71 300 15 61 27 138
28 173 1 58 -2 66 -26 87 -54 46 -253 41 -363 -9 -105 -48 -152 -119 -209
-313 -71 -244 -118 -522 -136 -803 l-10 -165 -63 -58 c-130 -122 -359 -256
-531 -312 -189 -61 -406 -49 -540 29 -42 24 -136 119 -136 136 0 5 26 16 58
25 438 122 688 269 829 486 117 181 153 427 92 625 -27 87 -41 116 -92 182
-118 156 -331 230 -579 203 -301 -33 -558 -192 -735 -456 -131 -195 -210 -454
-214 -698 l-2 -98 -111 -76 c-61 -42 -191 -137 -289 -210 -160 -119 -178 -131
-173 -106 3 15 10 60 16 98 6 39 47 291 90 560 90 558 102 652 91 714 -20 104
-67 125 -273 118 -82 -3 -148 -1 -148 4 0 4 -9 34 -21 64 -34 92 -103 116
-275 95 -183 -22 -317 -74 -487 -187 -355 -236 -618 -698 -643 -1132 l-6 -96
-108 -106 c-112 -111 -203 -169 -262 -169 -41 0 -86 26 -108 63 -36 58 -22
269 37 587 80 433 105 585 110 672 5 87 4 100 -16 131 -14 23 -38 42 -73 57
-48 20 -65 22 -196 19 l-143 -4 -18 53 c-10 29 -28 64 -41 77 -64 69 -307 50
-528 -40 -196 -80 -447 -293 -581 -495 -151 -226 -236 -463 -262 -727 -14
-135 -8 -125 -139 -241 -54 -47 -113 -88 -160 -111 -68 -32 -83 -36 -160 -36
-112 0 -174 22 -244 86 -52 48 -87 104 -100 161 -6 25 0 30 75 75 316 187 479
438 496 763 10 192 -40 335 -156 451 -75 75 -144 112 -246 134 -88 18 -132 18
-220 0 -236 -50 -510 -276 -693 -571 -61 -97 -166 -307 -213 -423 l-34 -84 -3
149 c-2 82 0 190 3 239 l7 91 115 129 c604 681 915 1198 1020 1695 23 110 27
149 27 320 1 175 -1 203 -22 275 -50 173 -159 318 -279 372 -74 33 -226 42
-313 18z m88 -461 c91 -64 106 -352 33 -635 -84 -323 -289 -713 -546 -1037
-37 -46 -68 -82 -70 -80 -3 4 36 283 60 418 111 642 286 1198 414 1313 44 40
74 46 109 21z m-2203 -2186 c-3 -13 -45 -221 -95 -463 -49 -242 -98 -465 -108
-495 -50 -142 -134 -260 -215 -299 -114 -55 -248 6 -284 128 -32 113 -11 368
46 541 36 108 117 260 180 340 129 162 302 265 449 269 29 1 32 -2 27 -21z
m4564 -420 c-49 -244 -98 -474 -110 -513 -44 -148 -137 -283 -222 -324 -79
-38 -168 -24 -229 36 -55 54 -73 114 -71 248 4 457 260 882 588 976 33 10 76
18 96 18 l36 1 -88 -442z m2271 429 c0 -27 -151 -823 -171 -902 -58 -229 -190
-385 -324 -385 -177 1 -247 165 -200 470 62 404 299 737 581 815 66 18 114 19
114 2z m2000 -40 c30 -16 51 -37 68 -68 34 -63 28 -178 -13 -261 -68 -139
-244 -255 -504 -332 l-54 -16 7 94 c13 184 73 358 165 474 94 118 230 163 331
109z m-2357 -2309 c-114 -488 -254 -836 -397 -986 -51 -54 -84 -72 -134 -72
-54 0 -88 29 -107 92 -20 69 -19 119 5 214 41 167 170 378 341 560 89 94 299
294 310 294 3 0 -5 -46 -18 -102z"/>
<path d="M11575 8821 c-168 -76 -216 -287 -95 -423 127 -145 362 -115 445 58
30 61 32 160 5 223 -27 62 -101 132 -158 149 -58 18 -150 15 -197 -7z"/>
<path d="M21660 4565 l0 -505 75 0 75 0 0 133 c0 129 1 134 25 157 14 13 27
22 28 19 2 -2 53 -71 112 -152 60 -82 114 -151 120 -153 6 -3 49 -4 94 -2 l82
3 -152 204 -151 204 148 148 149 149 -100 0 -100 0 -125 -125 -125 -125 -5
272 -5 273 -72 3 -73 3 0 -506z"/>
<path d="M22580 5021 c0 -69 -38 -263 -66 -336 -5 -13 5 -15 66 -15 l71 0 39
83 c43 93 80 207 80 244 0 16 -7 27 -20 30 -11 3 -20 12 -20 19 0 11 -18 14
-75 14 l-75 0 0 -39z"/>
<path d="M13600 4540 l0 -480 75 0 75 0 0 210 0 210 220 0 221 0 -3 73 -3 72
-217 3 -218 2 0 120 0 120 233 2 232 3 3 73 3 72 -311 0 -310 0 0 -480z"/>
<path d="M19250 4541 l0 -481 218 1 c176 0 226 4 264 17 128 46 193 138 193
272 0 64 -4 83 -30 128 -16 30 -40 62 -53 72 l-24 19 32 46 c92 133 43 310
-103 376 -49 23 -66 24 -274 27 l-223 3 0 -480z m441 306 c65 -44 65 -143 -1
-181 -28 -17 -57 -21 -162 -24 l-128 -4 0 116 0 116 129 0 c117 0 131 -2 162
-23z m6 -376 c55 -26 77 -67 71 -137 -8 -100 -52 -125 -235 -132 l-133 -5 0
147 0 146 128 0 c103 0 135 -4 169 -19z"/>
<path d="M15002 4775 c-23 -7 -54 -20 -67 -29 -31 -21 -35 -20 -35 4 0 18 -7
20 -75 20 l-75 0 0 -355 0 -355 75 0 75 0 0 198 c0 148 4 211 15 249 21 70 66
108 145 124 l60 12 0 73 0 74 -37 -1 c-21 0 -57 -6 -81 -14z"/>
<path d="M20674 4777 c-109 -36 -174 -118 -174 -219 0 -28 0 -28 70 -28 l69 0
12 41 c17 54 46 72 116 71 75 -1 107 -24 111 -80 l3 -42 -71 0 c-203 0 -324
-78 -338 -219 -9 -97 46 -193 133 -232 57 -26 185 -25 244 2 40 17 46 18 53 4
7 -11 27 -15 80 -15 68 0 70 1 63 23 -4 12 -10 141 -14 287 l-6 265 -27 47
c-21 35 -41 53 -82 73 -66 32 -179 42 -242 22z m205 -451 c-4 -29 -12 -63 -19
-75 -19 -37 -70 -61 -128 -61 -46 0 -58 4 -84 30 -26 27 -30 36 -25 67 12 70
54 90 188 92 l76 1 -8 -54z"/>
<path d="M23172 4772 c-96 -35 -142 -99 -142 -199 0 -107 48 -151 220 -203
111 -34 150 -59 150 -96 0 -56 -39 -84 -117 -84 -65 0 -105 26 -129 84 l-19
46 -72 0 -72 0 6 -37 c8 -54 39 -123 71 -156 49 -52 98 -70 198 -75 77 -4 98
-1 142 18 147 63 190 242 83 349 -38 38 -87 60 -228 100 -80 24 -99 43 -84 84
11 29 39 40 100 39 54 0 92 -26 107 -73 l12 -34 72 -3 73 -3 -6 46 c-12 87
-67 159 -146 192 -57 24 -159 26 -219 5z"/>
<path d="M15650 4512 c0 -276 6 -320 50 -382 53 -74 218 -105 317 -61 35 16
42 17 47 5 4 -10 24 -14 76 -14 l70 0 0 138 c0 75 -3 235 -7 355 l-6 217 -67
0 -67 0 -5 -232 c-5 -253 -12 -291 -62 -323 -64 -42 -164 -24 -188 33 -7 17
-13 122 -16 275 l-4 247 -69 0 -69 0 0 -258z"/>
</g>
</svg>
